# Blender v2.78 (sub 0) OBJ File: ''
# www.blender.org
mtllib bottom.mtl
o Plane
v -5.900000 0.000000 5.900000
v 5.900000 0.000000 5.900000
v -5.900000 0.000000 -5.900000
v 5.900000 0.000000 -5.900000
v -5.900000 0.000000 -4.827273
v -5.900000 0.000000 -3.754545
v -5.900000 0.000000 -2.681818
v -5.900000 0.000000 -1.609091
v -5.900000 0.000000 -0.536363
v -5.900000 0.000000 0.536364
v -5.900000 0.000000 1.609091
v -5.900000 0.000000 2.681818
v -5.900000 0.000000 3.754545
v -5.900000 0.000000 4.827273
v -4.827273 0.000000 5.900000
v -3.754545 0.000000 5.900000
v -2.681818 0.000000 5.900000
v -1.609091 0.000000 5.900000
v -0.536363 0.000000 5.900000
v 0.536364 0.000000 5.900000
v 1.609091 0.000000 5.900000
v 2.681818 0.000000 5.900000
v 3.754545 0.000000 5.900000
v 4.827273 0.000000 5.900000
v 5.900000 0.000000 4.827273
v 5.900000 -0.205853 3.754545
v 5.900000 0.000000 2.681818
v 5.900000 0.000000 1.609091
v 5.900000 0.000000 0.536363
v 5.900000 0.000000 -0.536364
v 5.900000 0.000000 -1.609091
v 5.900000 0.000000 -2.681818
v 5.900000 0.000000 -3.754545
v 5.900000 0.000000 -4.827273
v 4.827273 0.000000 -5.900000
v 3.754545 0.000000 -5.900000
v 2.681818 0.000000 -5.900000
v 1.609091 0.000000 -5.900000
v 0.536363 0.000000 -5.900000
v -0.536364 0.000000 -5.900000
v -1.609091 0.000000 -5.900000
v -2.681818 0.000000 -5.900000
v -3.754545 0.000000 -5.900000
v -4.827273 0.000000 -5.900000
v -4.827273 0.156465 4.597616
v -4.410124 -0.277256 3.754545
v -4.827273 0.000000 2.681818
v -4.454065 0.572266 1.609091
v -4.827273 0.000000 0.536363
v -5.331712 -0.382718 0.033654
v -4.827273 0.000000 -1.609091
v -4.654888 -0.257980 -2.681818
v -4.827273 0.000000 -3.754545
v -4.827273 0.353097 -4.435147
v -3.754545 -0.351758 4.677957
v -3.754545 0.000000 3.754545
v -3.754545 0.000000 2.681818
v -3.754545 0.157743 1.609091
v -3.754545 -0.104856 0.536363
v -3.422806 -0.155304 -0.536364
v -3.754545 -0.400725 -1.609091
v -3.754545 0.000000 -2.681818
v -3.226863 0.000000 -3.754545
v -3.754545 0.000000 -4.827273
v -2.681818 0.000000 4.827273
v -2.681818 -0.410901 3.754545
v -2.681818 0.000000 2.681818
v -2.681818 0.000000 1.609091
v -2.681818 0.000000 0.536363
v -2.681818 0.000000 -0.536364
v -2.681818 0.000000 -1.609091
v -2.681818 0.000000 -2.681818
v -2.681818 0.000000 -3.754545
v -2.242232 -0.140601 -5.040972
v -1.609091 -0.222946 4.602034
v -1.609091 0.000000 3.754545
v -1.609091 0.000000 2.681818
v -1.609091 0.322184 1.851895
v -1.609091 0.000000 0.536363
v -1.609091 0.299041 0.032774
v -1.609091 0.000000 -1.609091
v -1.211055 0.341450 -2.681818
v -1.227574 0.374016 -3.361802
v -1.609091 0.000000 -4.827273
v -0.536364 0.000000 4.827273
v -0.536364 0.166334 3.754545
v -0.536364 0.000000 2.681818
v -0.536364 -0.162344 1.609091
v -0.536364 0.000000 0.536363
v -0.198809 0.000000 -0.536364
v -0.536364 0.000000 -1.609091
v -0.874932 0.571249 -2.681818
v -0.536364 0.323736 -3.325702
v -0.536364 0.000000 -4.827273
v 0.536364 -0.175957 4.827273
v 0.536364 0.000000 3.754545
v 0.536364 0.000000 2.681818
v 0.536364 0.000000 1.609091
v 0.536364 0.224524 0.536363
v 0.536364 0.000000 -0.536364
v 0.536364 0.000000 -1.609091
v 0.536364 0.000000 -2.681818
v 0.536364 0.000000 -3.754545
v 0.536363 0.180758 -4.827273
v 1.609091 0.000000 4.672771
v 1.954336 -0.387717 3.754545
v 1.609091 0.076641 2.681818
v 1.827276 0.000000 1.609091
v 1.609091 0.000000 0.936637
v 1.609091 0.000000 -0.536364
v 1.609091 -0.534644 -1.906514
v 1.177941 -0.381829 -2.681818
v 2.016508 -0.272750 -3.754545
v 1.609091 0.000000 -4.827273
v 2.681818 0.000000 5.182553
v 2.681818 0.000000 3.754545
v 2.681818 0.000000 2.681818
v 2.681818 0.000000 1.609091
v 2.681818 0.149070 0.377062
v 2.681818 0.000000 -0.536364
v 2.681818 -0.173015 -1.609091
v 2.681818 0.000000 -2.681818
v 2.681818 0.000000 -3.754545
v 2.681818 0.275265 -4.827273
v 4.314762 0.030961 4.827273
v 3.754545 0.000000 3.754545
v 3.754545 0.113637 2.405716
v 3.754545 -0.155630 1.728610
v 3.754545 0.000000 0.536363
v 3.968500 -0.409508 -0.536364
v 3.417888 -0.372388 -1.609091
v 3.754545 0.000000 -2.681818
v 3.754545 -0.321223 -3.565386
v 3.754545 0.144509 -4.827273
v 4.827273 0.168609 4.827273
v 4.827273 0.000000 3.754545
v 4.827273 0.000000 2.681818
v 4.957628 -0.183533 1.609091
v 4.827273 0.000000 0.536363
v 4.546387 -0.409441 -0.536364
v 4.827273 -0.177392 -1.184090
v 4.827273 0.000000 -2.681818
v 4.827273 0.000000 -3.754545
v 4.827273 0.339436 -4.827273
vt 0.0910 0.0910
vt 0.0001 0.0910
vt 0.0001 0.0001
vt 0.0910 0.0001
vt 0.9999 0.0910
vt 0.9090 0.1242
vt 0.9090 0.0001
vt 0.9999 0.0001
vt 0.8181 0.0910
vt 0.8181 0.0001
vt 0.6900 0.0729
vt 0.7272 0.0001
vt 0.6363 0.0910
vt 0.6363 0.0001
vt 0.5454 0.0910
vt 0.5454 0.0001
vt 0.4546 0.0910
vt 0.4546 0.0001
vt 0.3637 0.0910
vt 0.3637 0.0001
vt 0.2728 0.0910
vt 0.2728 0.0001
vt 0.1819 0.0910
vt 0.1819 0.0001
vt 0.9999 0.9999
vt 0.9090 0.9999
vt 0.9090 0.8896
vt 0.9999 0.9090
vt 0.8737 0.8181
vt 0.9999 0.8181
vt 0.9090 0.7272
vt 0.9999 0.7272
vt 0.8774 0.6363
vt 0.9999 0.6363
vt 0.9090 0.5454
vt 0.9999 0.5454
vt 0.9517 0.5029
vt 0.9999 0.4546
vt 0.9090 0.3637
vt 0.9999 0.3637
vt 0.8944 0.2728
vt 0.9999 0.2728
vt 0.9090 0.1819
vt 0.9999 0.1819
vt 0.8181 0.9999
vt 0.8181 0.8964
vt 0.8181 0.8181
vt 0.8181 0.7272
vt 0.8181 0.6363
vt 0.8181 0.5454
vt 0.7900 0.4546
vt 0.8181 0.3637
vt 0.8181 0.2728
vt 0.7734 0.1819
vt 0.7272 0.9999
vt 0.7272 0.9090
vt 0.7272 0.8181
vt 0.7272 0.7272
vt 0.7272 0.6363
vt 0.7272 0.5454
vt 0.7272 0.4546
vt 0.7272 0.3637
vt 0.7272 0.2728
vt 0.7272 0.1819
vt 0.6363 0.9999
vt 0.6363 0.8899
vt 0.6363 0.8181
vt 0.6363 0.7272
vt 0.6363 0.6569
vt 0.6363 0.5454
vt 0.6363 0.5028
vt 0.6363 0.3637
vt 0.6026 0.2728
vt 0.6040 0.2152
vt 0.5454 0.9999
vt 0.5454 0.9090
vt 0.5454 0.8181
vt 0.5454 0.7272
vt 0.5454 0.6363
vt 0.5454 0.5454
vt 0.5168 0.4546
vt 0.5454 0.3637
vt 0.5741 0.2728
vt 0.5454 0.2182
vt 0.4546 0.9999
vt 0.4546 0.9090
vt 0.4546 0.8181
vt 0.4546 0.7272
vt 0.4546 0.6363
vt 0.4546 0.5454
vt 0.4546 0.4546
vt 0.4546 0.3637
vt 0.4546 0.2728
vt 0.4546 0.1819
vt 0.3637 0.9999
vt 0.3637 0.8959
vt 0.3344 0.8181
vt 0.3637 0.7272
vt 0.3452 0.6363
vt 0.3637 0.5794
vt 0.3637 0.4546
vt 0.3637 0.3385
vt 0.4002 0.2728
vt 0.3291 0.1819
vt 0.2728 0.9999
vt 0.2728 0.9391
vt 0.2728 0.8181
vt 0.2728 0.7272
vt 0.2728 0.6363
vt 0.2728 0.5319
vt 0.2728 0.4546
vt 0.2728 0.3637
vt 0.2728 0.2728
vt 0.2728 0.1819
vt 0.1819 0.9999
vt 0.1344 0.9090
vt 0.1819 0.8181
vt 0.1819 0.7038
vt 0.1819 0.6465
vt 0.1819 0.5454
vt 0.1638 0.4546
vt 0.2104 0.3637
vt 0.1819 0.2728
vt 0.1819 0.1979
vt 0.0910 0.9999
vt 0.0910 0.9090
vt 0.0910 0.8181
vt 0.0910 0.7272
vt 0.0799 0.6363
vt 0.0910 0.5454
vt 0.1148 0.4546
vt 0.0910 0.3997
vt 0.0910 0.2728
vt 0.0910 0.1819
vt 0.0001 0.9999
vt 0.0001 0.9090
vt 0.0001 0.8181
vt 0.0001 0.7272
vt 0.0001 0.6363
vt 0.0001 0.5454
vt 0.0001 0.4546
vt 0.0001 0.3637
vt 0.0001 0.2728
vt 0.0001 0.1819
vn 0.1544 0.9759 -0.1544
vn -0.1365 0.9812 -0.1365
vn 0.1365 0.9812 -0.1365
vn 0.0591 0.9965 0.0591
vn -0.0934 0.9912 0.0934
vn 0.0000 1.0000 0.0000
vn -0.0837 0.9930 -0.0837
vn 0.0837 0.9930 -0.0837
vn -0.1262 0.9839 -0.1262
vn 0.0597 0.9796 -0.1917
vn -0.0883 0.9717 -0.2192
vn -0.0656 0.9957 0.0656
vn 0.0267 0.9762 -0.2152
vn 0.1069 0.9885 0.1069
vn -0.2163 0.9521 0.2163
vn -0.2163 0.9521 -0.2163
vn 0.3189 0.8925 -0.3189
vn 0.1681 0.9713 0.1681
vn 0.1099 0.9878 -0.1099
vn 0.1099 0.9878 0.1099
vn -0.1937 0.9618 0.1937
vn 0.2325 0.9697 -0.0750
vn 0.1331 0.9910 -0.0145
vn -0.1564 0.9752 0.1564
vn 0.2135 0.9129 0.3478
vn 0.2591 0.8840 -0.3891
vn -0.0883 0.9629 -0.2551
vn 0.0684 0.9962 0.0547
vn 0.0720 0.9948 0.0720
vn -0.1021 0.9895 0.1021
vn 0.1512 0.9769 0.1512
vn -0.1498 0.9773 -0.1498
vn 0.0296 0.9991 -0.0296
vn 0.1849 0.9652 0.1849
vn 0.0731 0.9946 0.0731
vn 0.0245 0.9923 -0.1215
vn -0.1418 0.9889 -0.0452
vn -0.2925 0.9541 -0.0639
vn -0.1806 0.9668 0.1806
vn 0.0617 0.9962 -0.0617
vn 0.0932 0.9913 -0.0932
vn -0.0970 0.9906 -0.0970
vn -0.1849 0.9652 0.1849
vn -0.1647 0.9725 0.1647
vn -0.1325 0.9823 -0.1325
vn -0.1832 0.9658 0.1832
vn -0.1088 0.9881 -0.1088
vn -0.1319 0.9825 0.1319
vn -0.2401 0.9705 0.0203
vn -0.1844 0.9654 -0.1844
vn -0.0932 0.9913 -0.0932
vn -0.1949 0.9613 0.1949
vn -0.0771 0.9940 -0.0771
vn 0.2283 0.9702 0.0815
vn 0.2128 0.9749 -0.0652
vn 0.1658 0.9618 0.2180
vn 0.0915 0.9885 -0.1203
vn -0.1487 0.9114 0.3836
vn -0.1621 0.9670 -0.1964
vn 0.0325 0.9720 -0.2328
vn 0.0815 0.9933 -0.0815
vn 0.1556 0.9755 0.1556
vn 0.0771 0.9940 -0.0771
vn -0.0752 0.9943 -0.0752
vn -0.1747 0.9690 0.1747
vn -0.1223 0.9849 -0.1223
vn 0.2187 0.9510 0.2187
vn 0.3272 0.9423 -0.0713
vn 0.0554 0.9969 -0.0554
vn -0.0869 0.9933 -0.0760
vn 0.0787 0.9927 -0.0919
vn 0.1216 0.9740 0.1912
vn -0.0324 0.9987 -0.0390
vn 0.0741 0.9902 0.1181
vn 0.1198 0.9890 -0.0872
vn 0.2091 0.9553 -0.2091
vn 0.4663 0.8839 -0.0357
vn 0.2909 0.9430 0.1617
vn 0.1723 0.9699 0.1723
vn -0.1570 0.9704 -0.1835
vn -0.1655 0.9580 0.2340
vn 0.0397 0.9987 -0.0316
vn -0.0526 0.9951 0.0839
vn -0.0853 0.9944 -0.0621
vn -0.1224 0.9533 -0.2762
vn -0.2943 0.9271 0.2321
vn -0.2883 0.9554 -0.0641
vn -0.2880 0.9133 0.2880
vn -0.0096 0.9999 0.0143
vn -0.0127 0.9999 -0.0095
vn -0.0468 0.9978 0.0468
vn 0.0082 0.9883 -0.1521
vn 0.1237 0.9846 0.1237
vn 0.2390 0.9412 -0.2390
vn 0.2857 0.9490 -0.1334
vn 0.1058 0.9596 0.2606
vn 0.1599 0.9741 -0.1599
vn 0.1715 0.9390 0.2980
vn -0.0863 0.9938 0.0699
vn -0.0863 0.9938 -0.0699
vn 0.0468 0.9978 0.0468
vn 0.0769 0.9666 -0.2444
vn 0.0198 0.9889 0.1469
vn -0.0000 0.9343 -0.3566
vn -0.1329 0.9758 0.1735
vn -0.1098 0.9748 0.1941
vn -0.1599 0.9741 -0.1599
vn -0.1949 0.9272 0.3198
vn 0.0781 0.9939 0.0781
vn 0.1695 0.9709 -0.1695
vn 0.0951 0.9909 0.0951
vn -0.0903 0.9918 -0.0903
vn -0.0903 0.9918 0.0903
vn -0.1641 0.9727 -0.1641
vn -0.2182 0.9712 0.0954
vn -0.0687 0.9953 0.0687
vn 0.1544 0.9759 0.1544
usemtl Material.001
s off
f 144/1/1 34/2/1 4/3/1 35/4/1
f 5/5/2 54/6/2 44/7/2 3/8/2
f 54/6/3 64/9/3 43/10/3 44/7/3
f 64/9/4 74/11/4 42/12/4 43/10/4
f 74/11/5 84/13/5 41/14/5 42/12/5
f 84/13/6 94/15/6 40/16/6 41/14/6
f 94/15/7 104/17/7 39/18/7 40/16/7
f 104/17/8 114/19/8 38/20/8 39/18/8
f 114/19/9 124/21/9 37/22/9 38/20/9
f 124/21/10 134/23/10 36/24/10 37/22/10
f 134/23/11 144/1/11 35/4/11 36/24/11
f 1/25/12 15/26/12 45/27/12 14/28/12
f 14/28/13 45/27/13 46/29/13 13/30/13
f 13/30/14 46/29/14 47/31/14 12/32/14
f 12/32/15 47/31/15 48/33/15 11/34/15
f 11/34/16 48/33/16 49/35/16 10/36/16
f 10/36/17 49/35/17 50/37/17 9/38/17
f 9/38/18 50/37/18 51/39/18 8/40/18
f 8/40/19 51/39/19 52/41/19 7/42/19
f 7/42/20 52/41/20 53/43/20 6/44/20
f 6/44/21 53/43/21 54/6/21 5/5/21
f 15/26/22 16/45/22 55/46/22 45/27/22
f 45/27/23 55/46/23 56/47/23 46/29/23
f 46/29/24 56/47/24 57/48/24 47/31/24
f 47/31/25 57/48/25 58/49/25 48/33/25
f 48/33/26 58/49/26 59/50/26 49/35/26
f 49/35/27 59/50/27 60/51/27 50/37/27
f 50/37/28 60/51/28 61/52/28 51/39/28
f 51/39/29 61/52/29 62/53/29 52/41/29
f 52/41/30 62/53/30 63/54/30 53/43/30
f 53/43/31 63/54/31 64/9/31 54/6/31
f 16/45/32 17/55/32 65/56/32 55/46/32
f 55/46/33 65/56/33 66/57/33 56/47/33
f 56/47/34 66/57/34 67/58/34 57/48/34
f 57/48/35 67/58/35 68/59/35 58/49/35
f 58/49/36 68/59/36 69/60/36 59/50/36
f 59/50/37 69/60/37 70/61/37 60/51/37
f 60/51/38 70/61/38 71/62/38 61/52/38
f 61/52/39 71/62/39 72/63/39 62/53/39
f 62/53/6 72/63/6 73/64/6 63/54/6
f 63/54/40 73/64/40 74/11/40 64/9/40
f 17/55/41 18/65/41 75/66/41 65/56/41
f 65/56/42 75/66/42 76/67/42 66/57/42
f 66/57/43 76/67/43 77/68/43 67/58/43
f 67/58/44 77/68/44 78/69/44 68/59/44
f 68/59/45 78/69/45 79/70/45 69/60/45
f 69/60/46 79/70/46 80/71/46 70/61/46
f 70/61/47 80/71/47 81/72/47 71/62/47
f 71/62/48 81/72/48 82/73/48 72/63/48
f 72/63/49 82/73/49 83/74/49 73/64/49
f 73/64/50 83/74/50 84/13/50 74/11/50
f 18/65/51 19/75/51 85/76/51 75/66/51
f 75/66/52 85/76/52 86/77/52 76/67/52
f 76/67/53 86/77/53 87/78/53 77/68/53
f 77/68/54 87/78/54 88/79/54 78/69/54
f 78/69/55 88/79/55 89/80/55 79/70/55
f 79/70/56 89/80/56 90/81/56 80/71/56
f 80/71/57 90/81/57 91/82/57 81/72/57
f 81/72/58 91/82/58 92/83/58 82/73/58
f 82/73/59 92/83/59 93/84/59 83/74/59
f 83/74/60 93/84/60 94/15/60 84/13/60
f 19/75/61 20/85/61 95/86/61 85/76/61
f 85/76/62 95/86/62 96/87/62 86/77/62
f 86/77/63 96/87/63 97/88/63 87/78/63
f 87/78/64 97/88/64 98/89/64 88/79/64
f 88/79/65 98/89/65 99/90/65 89/80/65
f 89/80/66 99/90/66 100/91/66 90/81/66
f 90/81/6 100/91/6 101/92/6 91/82/6
f 91/82/67 101/92/67 102/93/67 92/83/67
f 92/83/68 102/93/68 103/94/68 93/84/68
f 93/84/69 103/94/69 104/17/69 94/15/69
f 20/85/70 21/95/70 105/96/70 95/86/70
f 95/86/71 105/96/71 106/97/71 96/87/71
f 96/87/72 106/97/72 107/98/72 97/88/72
f 97/88/73 107/98/73 108/99/73 98/89/73
f 98/89/74 108/99/74 109/100/74 99/90/74
f 99/90/75 109/100/75 110/101/75 100/91/75
f 100/91/76 110/101/76 111/102/76 101/92/76
f 101/92/77 111/102/77 112/103/77 102/93/77
f 102/93/78 112/103/78 113/104/78 103/94/78
f 103/94/79 113/104/79 114/19/79 104/17/79
f 21/95/6 22/105/6 115/106/6 105/96/6
f 105/96/80 115/106/80 116/107/80 106/97/80
f 106/97/81 116/107/81 117/108/81 107/98/81
f 107/98/82 117/108/82 118/109/82 108/99/82
f 108/99/83 118/109/83 119/110/83 109/100/83
f 109/100/84 119/110/84 120/111/84 110/101/84
f 110/101/85 120/111/85 121/112/85 111/102/85
f 111/102/86 121/112/86 122/113/86 112/103/86
f 112/103/87 122/113/87 123/114/87 113/104/87
f 113/104/88 123/114/88 124/21/88 114/19/88
f 22/105/89 23/115/89 125/116/89 115/106/89
f 115/106/90 125/116/90 126/117/90 116/107/90
f 116/107/91 126/117/91 127/118/91 117/108/91
f 117/108/92 127/118/92 128/119/92 118/109/92
f 118/109/93 128/119/93 129/120/93 119/110/93
f 119/110/94 129/120/94 130/121/94 120/111/94
f 120/111/95 130/121/95 131/122/95 121/112/95
f 121/112/96 131/122/96 132/123/96 122/113/96
f 122/113/97 132/123/97 133/124/97 123/114/97
f 123/114/98 133/124/98 134/23/98 124/21/98
f 23/115/99 24/125/99 135/126/99 125/116/99
f 125/116/100 135/126/100 136/127/100 126/117/100
f 126/117/101 136/127/101 137/128/101 127/118/101
f 127/118/102 137/128/102 138/129/102 128/119/102
f 128/119/103 138/129/103 139/130/103 129/120/103
f 129/120/104 139/130/104 140/131/104 130/121/104
f 130/121/105 140/131/105 141/132/105 131/122/105
f 131/122/106 141/132/106 142/133/106 132/123/106
f 132/123/107 142/133/107 143/134/107 133/124/107
f 133/124/108 143/134/108 144/1/108 134/23/108
f 24/125/109 2/135/109 25/136/109 135/126/109
f 135/126/110 25/136/110 26/137/110 136/127/110
f 136/127/111 26/137/111 27/138/111 137/128/111
f 137/128/112 27/138/112 28/139/112 138/129/112
f 138/129/113 28/139/113 29/140/113 139/130/113
f 139/130/114 29/140/114 30/141/114 140/131/114
f 140/131/115 30/141/115 31/142/115 141/132/115
f 141/132/116 31/142/116 32/143/116 142/133/116
f 142/133/6 32/143/6 33/144/6 143/134/6
f 143/134/117 33/144/117 34/2/117 144/1/117
